<svg width="156" height="48" viewBox="0 0 156 48" fill="none" xmlns="http://www.w3.org/2000/svg">
<g clip-path="url(#clip0_823_2850)">
<path d="M55.3593 37.0506C55.3593 36.4934 55.5417 35.9489 55.9065 35.409C56.2713 34.8691 56.7081 34.6055 57.2216 34.6055C57.5645 34.6055 58.0573 34.8736 58.7 35.4099C59.3426 35.9461 60.2629 36.4706 61.4606 36.9831C62.6584 37.4963 64.0711 37.7528 65.6988 37.7528C67.8384 37.7528 69.3888 37.3631 70.3501 36.5836C71.3113 35.8042 71.7929 34.8314 71.7947 33.6652C71.7947 32.237 71.2596 31.1009 70.1895 30.257C69.1194 29.4131 67.8137 28.7747 66.2724 28.3418C64.7311 27.9095 63.1901 27.4334 61.6494 26.9135C60.1342 26.413 58.7802 25.5166 57.7278 24.317C56.6583 23.1041 56.1235 21.5016 56.1235 19.5098C56.1235 17.0923 56.9902 15.0017 58.7237 13.2379C60.4571 11.474 63.102 10.5924 66.6582 10.593C68.9267 10.593 71.0028 10.9353 72.8864 11.6199C74.77 12.3046 75.7124 13.0834 75.7136 13.9565C75.7136 14.4709 75.5102 15.0485 75.1035 15.6894C74.6967 16.3302 74.1954 16.6506 73.5996 16.6506C73.4281 16.6506 72.604 16.3372 71.1271 15.7103C69.6502 15.0835 68.184 14.7691 66.7284 14.7673C64.7585 14.7673 63.2923 15.2334 62.3298 16.1654C61.3673 17.0975 60.8855 18.1469 60.8842 19.3137C60.8842 20.5261 61.4196 21.4788 62.4903 22.172C63.561 22.8651 64.8774 23.4059 66.4393 23.7944C68.014 24.1885 69.5666 24.6659 71.0906 25.2245C72.6331 25.7863 73.9404 26.7494 75.0123 28.1138C76.0842 29.4781 76.6196 31.2414 76.6183 33.4034C76.6183 36.0337 75.6759 38.1119 73.7911 39.638C71.9063 41.1641 69.2736 41.9287 65.893 41.9317C62.9813 41.9317 60.4979 41.4073 58.4428 40.3585C56.3877 39.3097 55.3599 38.207 55.3593 37.0506Z" fill="#384967"/>
<path d="M80.7068 31.7198V3.44095C80.7068 2.92658 80.985 2.48759 81.5413 2.124C82.0731 1.76751 82.6987 1.57705 83.3389 1.57679C84.0005 1.57089 84.6489 1.76133 85.2022 2.124C85.7576 2.48881 86.0376 2.92658 86.0376 3.44095V10.9806H94.1281C94.5987 10.9806 94.9835 11.1967 95.2827 11.6236C95.5834 12.0565 95.7407 12.573 95.7323 13.1001C95.7442 13.6178 95.5863 14.1252 95.2827 14.5447C94.9835 14.9521 94.5987 15.1561 94.1281 15.1567H86.0376V31.573C86.0376 33.397 86.4328 34.6799 87.2232 35.4217C88.0136 36.1635 89.3941 36.535 91.3647 36.5362H93.3556C94.0852 36.5362 94.6522 36.77 95.0565 37.2375C95.4651 37.7106 95.6827 38.319 95.6666 38.9439C95.6767 39.5808 95.4491 40.1986 95.0282 40.6767C94.6026 41.1662 94.046 41.4109 93.3583 41.4109H91.3674C84.2598 41.4146 80.7062 38.1842 80.7068 31.7198Z" fill="#384967"/>
<path d="M97.6139 29.4727V22.9217C97.6139 19.6275 98.8664 16.7492 101.371 14.2867C103.876 11.8243 106.84 10.5934 110.263 10.594C113.688 10.594 116.664 11.814 119.189 14.2539C121.715 16.6939 122.978 19.5819 122.979 22.9181V29.4691C122.979 32.7238 121.705 35.6136 119.158 38.1387C116.61 40.6638 113.645 41.9281 110.263 41.9318C106.88 41.9318 103.926 40.6793 101.401 38.1743C98.8749 35.6693 97.6127 32.7687 97.6139 29.4727ZM102.945 29.4545C102.945 31.4548 103.672 33.2211 105.127 34.7533C106.582 36.2855 108.294 37.0513 110.263 37.0507C112.275 37.0507 114.007 36.2742 115.461 34.7214C116.915 33.1685 117.644 31.4129 117.65 29.4545V22.9427C117.65 21.0275 116.922 19.304 115.467 17.7725C114.011 16.2409 112.278 15.4748 110.268 15.4742C108.256 15.4742 106.533 16.2403 105.1 17.7725C103.666 19.3047 102.949 21.0281 102.948 22.9427L102.945 29.4545Z" fill="#384967"/>
<path d="M127.956 39.4912V12.8412C127.956 12.2849 128.202 11.8356 128.694 11.4933C129.186 11.1513 129.818 10.978 130.588 10.978C131.273 10.978 131.851 11.1519 132.321 11.4997C132.542 11.6513 132.723 11.8557 132.846 12.0945C132.969 12.3334 133.031 12.5991 133.026 12.8677V15.9248C133.797 14.4528 134.931 13.1969 136.429 12.1572C137.895 11.127 139.647 10.5813 141.438 10.5968H143.621C144.178 10.5968 144.659 10.846 145.066 11.3446C145.467 11.8291 145.684 12.4402 145.676 13.0692C145.687 13.6892 145.47 14.2916 145.066 14.7619C144.658 15.2392 144.177 15.4776 143.621 15.477H141.438C139.255 15.477 137.35 16.3528 135.723 18.1045C134.097 19.8561 133.283 22.1192 133.283 24.8935V39.4958C133.283 39.9658 133.015 40.4036 132.479 40.8091C131.934 41.2184 131.267 41.4323 130.585 41.4165C129.855 41.4165 129.235 41.2241 128.724 40.8392C128.212 40.4543 127.956 40.005 127.956 39.4912Z" fill="#384967"/>
<path d="M149.424 6.75611C148.759 6.13654 148.427 5.4197 148.428 4.60558C148.429 3.79145 148.749 3.08524 149.388 2.48696C150.031 1.88686 150.824 1.58711 151.765 1.58771C152.624 1.57187 153.454 1.89495 154.076 2.48696C154.72 3.08524 155.043 3.79145 155.043 4.60558C155.043 5.4197 154.721 6.13654 154.079 6.75611C153.775 7.05775 153.414 7.29549 153.017 7.45527C152.62 7.61505 152.195 7.69363 151.768 7.68636C150.894 7.69763 150.052 7.36326 149.424 6.75611ZM149.135 39.4911V12.8411C149.135 12.2847 149.392 11.8354 149.905 11.4931C150.419 11.1511 151.038 10.9778 151.768 10.9778C152.538 10.9778 153.179 11.1511 153.695 11.4931C154.21 11.8351 154.464 12.2847 154.464 12.8411V39.4911C154.464 39.9626 154.196 40.4031 153.662 40.808C153.117 41.2179 152.449 41.4322 151.768 41.4164C151.038 41.4164 150.419 41.2248 149.905 40.8391C149.392 40.4533 149.135 40.0046 149.135 39.4911Z" fill="#384967"/>
<path d="M21.3681 0.402161L4.33314 7.09182C1.35321 8.26204 -0.113922 11.6262 1.05621 14.6059C2.22634 17.5856 5.59063 19.0525 8.57056 17.8823L25.6055 11.1926C28.5855 10.0224 30.0526 6.6582 28.8825 3.6785C27.7123 0.698807 24.348 -0.768062 21.3681 0.402161Z" fill="#878FFF"/>
<path d="M33.0126 29.9866L15.9777 36.6763C12.9977 37.8465 11.5306 41.2107 12.7007 44.1904C13.8709 47.1701 17.2352 48.6369 20.2151 47.4667L37.2501 40.7771C40.23 39.6068 41.6971 36.2427 40.527 33.263C39.3569 30.2833 35.9926 28.8164 33.0126 29.9866Z" fill="#FF94D7"/>
<path d="M1.05695 14.6052C1.6228 16.0334 2.7309 17.1797 4.13918 17.7935C5.54745 18.4073 7.14143 18.4388 8.57287 17.8811L9.96005 17.3339C9.25863 16.0532 8.83782 14.6379 8.72557 13.182C8.61332 11.7261 8.81221 10.263 9.30902 8.88993C9.80582 7.51683 10.5892 6.2652 11.607 5.21819C12.6248 4.17118 13.8538 3.35278 15.2123 2.81738L4.33291 7.09018C2.9049 7.65603 1.75884 8.76398 1.14503 10.172C0.531226 11.5801 0.49956 13.1739 1.05695 14.6052Z" fill="#6C73CC"/>
<path d="M32.1845 31.7173C33.1814 34.2552 33.1293 37.0852 32.0396 39.5847C30.9499 42.0843 28.912 44.0485 26.374 45.0455L37.2535 40.7727C38.6815 40.2068 39.8275 39.0989 40.4413 37.6908C41.0551 36.2827 41.0868 34.689 40.5294 33.2577C39.9636 31.8299 38.8558 30.684 37.4479 30.0702C36.0401 29.4564 34.4465 29.4246 33.0153 29.9817L31.6281 30.5289C31.8385 30.9129 32.0243 31.3098 32.1845 31.7173Z" fill="#DB82BD"/>
<path d="M40.4021 27.72C39.014 24.8617 37.4599 23.4143 34.9829 21.915C33.5829 21.0677 27.8336 19.2519 21.7586 17.4461C14.7215 15.2491 6.77695 12.7155 5.25115 12.0041C2.40201 10.679 2.10652 8.99446 3.03951 7.80884C-0.273844 9.84537 -0.826526 16.1529 1.15164 20.2268C2.53516 23.0815 4.08924 24.5288 6.56627 26.0291C7.96622 26.8764 13.7147 28.6931 19.7905 30.498C26.8276 32.695 34.7731 35.2286 36.298 35.94C39.1471 37.266 39.4435 38.9496 38.5096 40.1352C41.8266 38.1014 42.3793 31.7939 40.4021 27.72Z" fill="#6EFFB4"/>
</g>
<defs>
<clipPath id="clip0_823_2850">
<rect width="155.043" height="47.8626" fill="white"/>
</clipPath>
</defs>
</svg>
